<svg xmlns="http://www.w3.org/2000/svg" width="114.046" height="30" viewBox="0 0 114.046 30">
  <g id="Logo" transform="translate(0 0)">
    <path id="Path_36" data-name="Path 36" d="M10.525-1.568a12.192,12.192,0,0,0,4.706-.9V-7.676h-.267a6.55,6.55,0,0,1-3.6,1.1c-2.47,0-4.406-1.569-4.406-3.9s1.936-3.9,4.406-3.9a6.491,6.491,0,0,1,3.571,1.068h.3v-5.173a12.192,12.192,0,0,0-4.706-.9c-5.34,0-9.445,3.571-9.445,8.911S5.185-1.568,10.525-1.568ZM30.283-17.321a7.364,7.364,0,0,0-5.207-2.069c-4.606,0-8.144,3.5-8.144,8.911s3.538,8.911,8.144,8.911a7.364,7.364,0,0,0,5.207-2.069v1.669h6.174V-18.99H30.283ZM26.746-6.441a3.848,3.848,0,0,1-3.938-4.038,3.848,3.848,0,0,1,3.938-4.038,5.807,5.807,0,0,1,3.538,1.335v5.407A5.807,5.807,0,0,1,26.746-6.441Zm25.465-10.88A7.364,7.364,0,0,0,47-19.39c-4.606,0-8.144,3.5-8.144,8.911S42.4-1.568,47-1.568a7.364,7.364,0,0,0,5.207-2.069v1.669h6.174V-18.99H52.211ZM48.673-6.441a3.848,3.848,0,0,1-3.938-4.038,3.848,3.848,0,0,1,3.938-4.038,5.807,5.807,0,0,1,3.538,1.335v5.407A5.807,5.807,0,0,1,48.673-6.441Zm25.766-4.372a10.221,10.221,0,0,0,4.639-8.144H72.97c-.267,3.237-2.537,6.041-5.14,6.542V-27H61.69V-1.969h6.141v-8.577l5.507,8.577h6.708V-2.6Z" transform="translate(34 27)" fill="#0d1026"/>
    <g id="Circle" transform="translate(0 1)">
      <path id="Ellipse_14" data-name="Ellipse 14" d="M14.5,4A10.5,10.5,0,1,0,25,14.5,10.512,10.512,0,0,0,14.5,4m0-4A14.5,14.5,0,1,1,0,14.5,14.5,14.5,0,0,1,14.5,0Z" fill="#f60"/>
      <path id="Subtraction_1" data-name="Subtraction 1" d="M7.5,13.7C3.364,13.7,0,10.623,0,6.847S3.364,0,7.5,0A8.1,8.1,0,0,1,11,.79V4.268A4.657,4.657,0,0,0,7.5,2.739,4.323,4.323,0,0,0,3,6.847a4.323,4.323,0,0,0,4.5,4.109A4.658,4.658,0,0,0,11,9.427v3.478A8.1,8.1,0,0,1,7.5,13.7Z" transform="translate(7 7.653)" fill="#f60"/>
      <circle id="Ellipse_16" data-name="Ellipse 16" cx="2.5" cy="2.5" r="2.5" transform="translate(12 12)" fill="#f60"/>
    </g>
  </g>
</svg>
